<mxfile host="app.diagrams.net" agent="Mozilla/5.0 (Windows NT 10.0; Win64; x64) AppleWebKit/537.36 (KHTML, like Gecko) Chrome/131.0.0.0 Safari/537.36" version="24.8.6">
  <diagram id="C5RBs43oDa-KdzZeNtuy" name="Page-1">
    <mxGraphModel dx="1947" dy="508" grid="1" gridSize="10" guides="1" tooltips="1" connect="1" arrows="1" fold="1" page="1" pageScale="1" pageWidth="827" pageHeight="1169" math="0" shadow="0">
      <root>
        <mxCell id="WIyWlLk6GJQsqaUBKTNV-0" />
        <mxCell id="WIyWlLk6GJQsqaUBKTNV-1" parent="WIyWlLk6GJQsqaUBKTNV-0" />
        <mxCell id="AR5Z-QuT03U5Xt1z8wnu-2" value="" style="edgeStyle=orthogonalEdgeStyle;rounded=0;orthogonalLoop=1;jettySize=auto;html=1;" edge="1" parent="WIyWlLk6GJQsqaUBKTNV-1" source="AR5Z-QuT03U5Xt1z8wnu-0" target="AR5Z-QuT03U5Xt1z8wnu-1">
          <mxGeometry relative="1" as="geometry" />
        </mxCell>
        <mxCell id="AR5Z-QuT03U5Xt1z8wnu-0" value="START" style="ellipse;whiteSpace=wrap;html=1;" vertex="1" parent="WIyWlLk6GJQsqaUBKTNV-1">
          <mxGeometry x="380" y="70" width="120" height="80" as="geometry" />
        </mxCell>
        <mxCell id="AR5Z-QuT03U5Xt1z8wnu-4" value="" style="edgeStyle=orthogonalEdgeStyle;rounded=0;orthogonalLoop=1;jettySize=auto;html=1;" edge="1" parent="WIyWlLk6GJQsqaUBKTNV-1" source="AR5Z-QuT03U5Xt1z8wnu-1" target="AR5Z-QuT03U5Xt1z8wnu-3">
          <mxGeometry relative="1" as="geometry" />
        </mxCell>
        <mxCell id="AR5Z-QuT03U5Xt1z8wnu-1" value="a,b,pheptinh" style="whiteSpace=wrap;html=1;" vertex="1" parent="WIyWlLk6GJQsqaUBKTNV-1">
          <mxGeometry x="380" y="200" width="120" height="60" as="geometry" />
        </mxCell>
        <mxCell id="AR5Z-QuT03U5Xt1z8wnu-6" value="" style="edgeStyle=orthogonalEdgeStyle;rounded=0;orthogonalLoop=1;jettySize=auto;html=1;" edge="1" parent="WIyWlLk6GJQsqaUBKTNV-1" source="AR5Z-QuT03U5Xt1z8wnu-3" target="AR5Z-QuT03U5Xt1z8wnu-5">
          <mxGeometry relative="1" as="geometry" />
        </mxCell>
        <mxCell id="AR5Z-QuT03U5Xt1z8wnu-3" value="a,b,pheptinh" style="shape=parallelogram;perimeter=parallelogramPerimeter;whiteSpace=wrap;html=1;fixedSize=1;" vertex="1" parent="WIyWlLk6GJQsqaUBKTNV-1">
          <mxGeometry x="380" y="330" width="120" height="60" as="geometry" />
        </mxCell>
        <mxCell id="AR5Z-QuT03U5Xt1z8wnu-8" value="" style="edgeStyle=orthogonalEdgeStyle;rounded=0;orthogonalLoop=1;jettySize=auto;html=1;" edge="1" parent="WIyWlLk6GJQsqaUBKTNV-1" source="AR5Z-QuT03U5Xt1z8wnu-5" target="AR5Z-QuT03U5Xt1z8wnu-7">
          <mxGeometry relative="1" as="geometry" />
        </mxCell>
        <mxCell id="AR5Z-QuT03U5Xt1z8wnu-17" style="edgeStyle=orthogonalEdgeStyle;rounded=0;orthogonalLoop=1;jettySize=auto;html=1;entryX=0.5;entryY=0;entryDx=0;entryDy=0;" edge="1" parent="WIyWlLk6GJQsqaUBKTNV-1" source="AR5Z-QuT03U5Xt1z8wnu-5" target="AR5Z-QuT03U5Xt1z8wnu-12">
          <mxGeometry relative="1" as="geometry" />
        </mxCell>
        <mxCell id="AR5Z-QuT03U5Xt1z8wnu-5" value="pheptinh=&quot;+&quot;" style="rhombus;whiteSpace=wrap;html=1;" vertex="1" parent="WIyWlLk6GJQsqaUBKTNV-1">
          <mxGeometry x="375" y="460" width="130" height="110" as="geometry" />
        </mxCell>
        <mxCell id="AR5Z-QuT03U5Xt1z8wnu-11" value="" style="edgeStyle=orthogonalEdgeStyle;rounded=0;orthogonalLoop=1;jettySize=auto;html=1;" edge="1" parent="WIyWlLk6GJQsqaUBKTNV-1" source="AR5Z-QuT03U5Xt1z8wnu-7" target="AR5Z-QuT03U5Xt1z8wnu-10">
          <mxGeometry relative="1" as="geometry" />
        </mxCell>
        <mxCell id="AR5Z-QuT03U5Xt1z8wnu-7" value="a+b" style="whiteSpace=wrap;html=1;" vertex="1" parent="WIyWlLk6GJQsqaUBKTNV-1">
          <mxGeometry x="550" y="585" width="120" height="60" as="geometry" />
        </mxCell>
        <mxCell id="AR5Z-QuT03U5Xt1z8wnu-9" value="true" style="text;html=1;align=center;verticalAlign=middle;resizable=0;points=[];autosize=1;strokeColor=none;fillColor=none;" vertex="1" parent="WIyWlLk6GJQsqaUBKTNV-1">
          <mxGeometry x="530" y="488" width="40" height="30" as="geometry" />
        </mxCell>
        <mxCell id="AR5Z-QuT03U5Xt1z8wnu-10" value="a+b" style="shape=parallelogram;perimeter=parallelogramPerimeter;whiteSpace=wrap;html=1;fixedSize=1;" vertex="1" parent="WIyWlLk6GJQsqaUBKTNV-1">
          <mxGeometry x="550" y="725" width="120" height="60" as="geometry" />
        </mxCell>
        <mxCell id="AR5Z-QuT03U5Xt1z8wnu-16" value="" style="edgeStyle=orthogonalEdgeStyle;rounded=0;orthogonalLoop=1;jettySize=auto;html=1;" edge="1" parent="WIyWlLk6GJQsqaUBKTNV-1" source="AR5Z-QuT03U5Xt1z8wnu-12" target="AR5Z-QuT03U5Xt1z8wnu-15">
          <mxGeometry relative="1" as="geometry" />
        </mxCell>
        <mxCell id="AR5Z-QuT03U5Xt1z8wnu-21" value="" style="edgeStyle=orthogonalEdgeStyle;rounded=0;orthogonalLoop=1;jettySize=auto;html=1;" edge="1" parent="WIyWlLk6GJQsqaUBKTNV-1" source="AR5Z-QuT03U5Xt1z8wnu-12" target="AR5Z-QuT03U5Xt1z8wnu-20">
          <mxGeometry relative="1" as="geometry" />
        </mxCell>
        <mxCell id="AR5Z-QuT03U5Xt1z8wnu-12" value="pheptinh=&quot;-&quot;" style="rhombus;whiteSpace=wrap;html=1;" vertex="1" parent="WIyWlLk6GJQsqaUBKTNV-1">
          <mxGeometry x="150" y="570" width="130" height="110" as="geometry" />
        </mxCell>
        <mxCell id="AR5Z-QuT03U5Xt1z8wnu-14" value="false" style="text;html=1;align=center;verticalAlign=middle;resizable=0;points=[];autosize=1;strokeColor=none;fillColor=none;" vertex="1" parent="WIyWlLk6GJQsqaUBKTNV-1">
          <mxGeometry x="280" y="480" width="50" height="30" as="geometry" />
        </mxCell>
        <mxCell id="AR5Z-QuT03U5Xt1z8wnu-19" value="" style="edgeStyle=orthogonalEdgeStyle;rounded=0;orthogonalLoop=1;jettySize=auto;html=1;" edge="1" parent="WIyWlLk6GJQsqaUBKTNV-1" source="AR5Z-QuT03U5Xt1z8wnu-15" target="AR5Z-QuT03U5Xt1z8wnu-18">
          <mxGeometry relative="1" as="geometry" />
        </mxCell>
        <mxCell id="AR5Z-QuT03U5Xt1z8wnu-15" value="a-b" style="whiteSpace=wrap;html=1;" vertex="1" parent="WIyWlLk6GJQsqaUBKTNV-1">
          <mxGeometry x="310" y="710" width="120" height="60" as="geometry" />
        </mxCell>
        <mxCell id="AR5Z-QuT03U5Xt1z8wnu-18" value="a-b" style="shape=parallelogram;perimeter=parallelogramPerimeter;whiteSpace=wrap;html=1;fixedSize=1;" vertex="1" parent="WIyWlLk6GJQsqaUBKTNV-1">
          <mxGeometry x="310" y="850" width="120" height="60" as="geometry" />
        </mxCell>
        <mxCell id="AR5Z-QuT03U5Xt1z8wnu-23" value="" style="edgeStyle=orthogonalEdgeStyle;rounded=0;orthogonalLoop=1;jettySize=auto;html=1;" edge="1" parent="WIyWlLk6GJQsqaUBKTNV-1" source="AR5Z-QuT03U5Xt1z8wnu-20" target="AR5Z-QuT03U5Xt1z8wnu-22">
          <mxGeometry relative="1" as="geometry" />
        </mxCell>
        <mxCell id="AR5Z-QuT03U5Xt1z8wnu-32" value="" style="edgeStyle=orthogonalEdgeStyle;rounded=0;orthogonalLoop=1;jettySize=auto;html=1;" edge="1" parent="WIyWlLk6GJQsqaUBKTNV-1" source="AR5Z-QuT03U5Xt1z8wnu-20" target="AR5Z-QuT03U5Xt1z8wnu-31">
          <mxGeometry relative="1" as="geometry" />
        </mxCell>
        <mxCell id="AR5Z-QuT03U5Xt1z8wnu-20" value="pheptinh=&#39;&#39;*&#39;" style="rhombus;whiteSpace=wrap;html=1;" vertex="1" parent="WIyWlLk6GJQsqaUBKTNV-1">
          <mxGeometry x="-80" y="685" width="130" height="110" as="geometry" />
        </mxCell>
        <mxCell id="AR5Z-QuT03U5Xt1z8wnu-30" value="" style="edgeStyle=orthogonalEdgeStyle;rounded=0;orthogonalLoop=1;jettySize=auto;html=1;" edge="1" parent="WIyWlLk6GJQsqaUBKTNV-1" source="AR5Z-QuT03U5Xt1z8wnu-22" target="AR5Z-QuT03U5Xt1z8wnu-29">
          <mxGeometry relative="1" as="geometry" />
        </mxCell>
        <mxCell id="AR5Z-QuT03U5Xt1z8wnu-22" value="a*b" style="whiteSpace=wrap;html=1;" vertex="1" parent="WIyWlLk6GJQsqaUBKTNV-1">
          <mxGeometry x="90" y="850" width="120" height="60" as="geometry" />
        </mxCell>
        <mxCell id="AR5Z-QuT03U5Xt1z8wnu-24" value="true" style="text;html=1;align=center;verticalAlign=middle;resizable=0;points=[];autosize=1;strokeColor=none;fillColor=none;" vertex="1" parent="WIyWlLk6GJQsqaUBKTNV-1">
          <mxGeometry x="60" y="708" width="40" height="30" as="geometry" />
        </mxCell>
        <mxCell id="AR5Z-QuT03U5Xt1z8wnu-27" value="true" style="text;html=1;align=center;verticalAlign=middle;resizable=0;points=[];autosize=1;strokeColor=none;fillColor=none;" vertex="1" parent="WIyWlLk6GJQsqaUBKTNV-1">
          <mxGeometry x="300" y="600" width="40" height="30" as="geometry" />
        </mxCell>
        <mxCell id="AR5Z-QuT03U5Xt1z8wnu-28" value="false" style="text;html=1;align=center;verticalAlign=middle;resizable=0;points=[];autosize=1;strokeColor=none;fillColor=none;" vertex="1" parent="WIyWlLk6GJQsqaUBKTNV-1">
          <mxGeometry x="70" y="600" width="50" height="30" as="geometry" />
        </mxCell>
        <mxCell id="AR5Z-QuT03U5Xt1z8wnu-47" style="edgeStyle=orthogonalEdgeStyle;rounded=0;orthogonalLoop=1;jettySize=auto;html=1;entryX=0.5;entryY=0;entryDx=0;entryDy=0;" edge="1" parent="WIyWlLk6GJQsqaUBKTNV-1" source="AR5Z-QuT03U5Xt1z8wnu-29" target="AR5Z-QuT03U5Xt1z8wnu-44">
          <mxGeometry relative="1" as="geometry" />
        </mxCell>
        <mxCell id="AR5Z-QuT03U5Xt1z8wnu-29" value="a*b" style="shape=parallelogram;perimeter=parallelogramPerimeter;whiteSpace=wrap;html=1;fixedSize=1;" vertex="1" parent="WIyWlLk6GJQsqaUBKTNV-1">
          <mxGeometry x="90" y="990" width="120" height="60" as="geometry" />
        </mxCell>
        <mxCell id="AR5Z-QuT03U5Xt1z8wnu-35" value="" style="edgeStyle=orthogonalEdgeStyle;rounded=0;orthogonalLoop=1;jettySize=auto;html=1;" edge="1" parent="WIyWlLk6GJQsqaUBKTNV-1" source="AR5Z-QuT03U5Xt1z8wnu-31" target="AR5Z-QuT03U5Xt1z8wnu-34">
          <mxGeometry relative="1" as="geometry" />
        </mxCell>
        <mxCell id="AR5Z-QuT03U5Xt1z8wnu-31" value="pheptinh=&quot;/&quot;" style="rhombus;whiteSpace=wrap;html=1;" vertex="1" parent="WIyWlLk6GJQsqaUBKTNV-1">
          <mxGeometry x="-270" y="810" width="130" height="110" as="geometry" />
        </mxCell>
        <mxCell id="AR5Z-QuT03U5Xt1z8wnu-33" value="false" style="text;html=1;align=center;verticalAlign=middle;resizable=0;points=[];autosize=1;strokeColor=none;fillColor=none;" vertex="1" parent="WIyWlLk6GJQsqaUBKTNV-1">
          <mxGeometry x="-150" y="708" width="50" height="30" as="geometry" />
        </mxCell>
        <mxCell id="AR5Z-QuT03U5Xt1z8wnu-37" value="" style="edgeStyle=orthogonalEdgeStyle;rounded=0;orthogonalLoop=1;jettySize=auto;html=1;" edge="1" parent="WIyWlLk6GJQsqaUBKTNV-1" source="AR5Z-QuT03U5Xt1z8wnu-34" target="AR5Z-QuT03U5Xt1z8wnu-36">
          <mxGeometry relative="1" as="geometry" />
        </mxCell>
        <mxCell id="AR5Z-QuT03U5Xt1z8wnu-40" value="" style="edgeStyle=orthogonalEdgeStyle;rounded=0;orthogonalLoop=1;jettySize=auto;html=1;" edge="1" parent="WIyWlLk6GJQsqaUBKTNV-1" source="AR5Z-QuT03U5Xt1z8wnu-34" target="AR5Z-QuT03U5Xt1z8wnu-39">
          <mxGeometry relative="1" as="geometry" />
        </mxCell>
        <mxCell id="AR5Z-QuT03U5Xt1z8wnu-34" value="b=0" style="rhombus;whiteSpace=wrap;html=1;" vertex="1" parent="WIyWlLk6GJQsqaUBKTNV-1">
          <mxGeometry x="-270" y="980" width="130" height="110" as="geometry" />
        </mxCell>
        <mxCell id="AR5Z-QuT03U5Xt1z8wnu-46" style="edgeStyle=orthogonalEdgeStyle;rounded=0;orthogonalLoop=1;jettySize=auto;html=1;entryX=0.5;entryY=0;entryDx=0;entryDy=0;" edge="1" parent="WIyWlLk6GJQsqaUBKTNV-1" source="AR5Z-QuT03U5Xt1z8wnu-36" target="AR5Z-QuT03U5Xt1z8wnu-44">
          <mxGeometry relative="1" as="geometry" />
        </mxCell>
        <mxCell id="AR5Z-QuT03U5Xt1z8wnu-36" value="Không thể&amp;nbsp;&lt;div&gt;thực hiện&lt;/div&gt;" style="shape=parallelogram;perimeter=parallelogramPerimeter;whiteSpace=wrap;html=1;fixedSize=1;" vertex="1" parent="WIyWlLk6GJQsqaUBKTNV-1">
          <mxGeometry x="-100" y="1109" width="120" height="60" as="geometry" />
        </mxCell>
        <mxCell id="AR5Z-QuT03U5Xt1z8wnu-38" value="true" style="text;html=1;align=center;verticalAlign=middle;resizable=0;points=[];autosize=1;strokeColor=none;fillColor=none;" vertex="1" parent="WIyWlLk6GJQsqaUBKTNV-1">
          <mxGeometry x="-120" y="1005" width="40" height="30" as="geometry" />
        </mxCell>
        <mxCell id="AR5Z-QuT03U5Xt1z8wnu-43" value="" style="edgeStyle=orthogonalEdgeStyle;rounded=0;orthogonalLoop=1;jettySize=auto;html=1;" edge="1" parent="WIyWlLk6GJQsqaUBKTNV-1" source="AR5Z-QuT03U5Xt1z8wnu-39" target="AR5Z-QuT03U5Xt1z8wnu-42">
          <mxGeometry relative="1" as="geometry" />
        </mxCell>
        <mxCell id="AR5Z-QuT03U5Xt1z8wnu-39" value="a/b" style="whiteSpace=wrap;html=1;" vertex="1" parent="WIyWlLk6GJQsqaUBKTNV-1">
          <mxGeometry x="-430" y="1110" width="120" height="60" as="geometry" />
        </mxCell>
        <mxCell id="AR5Z-QuT03U5Xt1z8wnu-41" value="false" style="text;html=1;align=center;verticalAlign=middle;resizable=0;points=[];autosize=1;strokeColor=none;fillColor=none;" vertex="1" parent="WIyWlLk6GJQsqaUBKTNV-1">
          <mxGeometry x="-335" y="998" width="50" height="30" as="geometry" />
        </mxCell>
        <mxCell id="AR5Z-QuT03U5Xt1z8wnu-45" style="edgeStyle=orthogonalEdgeStyle;rounded=0;orthogonalLoop=1;jettySize=auto;html=1;" edge="1" parent="WIyWlLk6GJQsqaUBKTNV-1" source="AR5Z-QuT03U5Xt1z8wnu-42" target="AR5Z-QuT03U5Xt1z8wnu-44">
          <mxGeometry relative="1" as="geometry" />
        </mxCell>
        <mxCell id="AR5Z-QuT03U5Xt1z8wnu-42" value="a/b" style="shape=parallelogram;perimeter=parallelogramPerimeter;whiteSpace=wrap;html=1;fixedSize=1;" vertex="1" parent="WIyWlLk6GJQsqaUBKTNV-1">
          <mxGeometry x="-430" y="1260" width="120" height="60" as="geometry" />
        </mxCell>
        <mxCell id="AR5Z-QuT03U5Xt1z8wnu-44" value="END&amp;nbsp;" style="ellipse;whiteSpace=wrap;html=1;" vertex="1" parent="WIyWlLk6GJQsqaUBKTNV-1">
          <mxGeometry x="10" y="1360" width="120" height="80" as="geometry" />
        </mxCell>
        <mxCell id="AR5Z-QuT03U5Xt1z8wnu-49" value="" style="endArrow=none;html=1;rounded=0;entryX=0.433;entryY=1;entryDx=0;entryDy=0;entryPerimeter=0;" edge="1" parent="WIyWlLk6GJQsqaUBKTNV-1" target="AR5Z-QuT03U5Xt1z8wnu-18">
          <mxGeometry width="50" height="50" relative="1" as="geometry">
            <mxPoint x="362" y="1200" as="sourcePoint" />
            <mxPoint x="410" y="1060" as="targetPoint" />
          </mxGeometry>
        </mxCell>
        <mxCell id="AR5Z-QuT03U5Xt1z8wnu-50" value="" style="endArrow=none;html=1;rounded=0;" edge="1" parent="WIyWlLk6GJQsqaUBKTNV-1">
          <mxGeometry width="50" height="50" relative="1" as="geometry">
            <mxPoint x="360" y="1200" as="sourcePoint" />
            <mxPoint x="150" y="1200" as="targetPoint" />
          </mxGeometry>
        </mxCell>
        <mxCell id="AR5Z-QuT03U5Xt1z8wnu-51" value="" style="endArrow=none;html=1;rounded=0;entryX=0.392;entryY=1.017;entryDx=0;entryDy=0;entryPerimeter=0;" edge="1" parent="WIyWlLk6GJQsqaUBKTNV-1" target="AR5Z-QuT03U5Xt1z8wnu-10">
          <mxGeometry width="50" height="50" relative="1" as="geometry">
            <mxPoint x="600" y="1210" as="sourcePoint" />
            <mxPoint x="650" y="920" as="targetPoint" />
          </mxGeometry>
        </mxCell>
        <mxCell id="AR5Z-QuT03U5Xt1z8wnu-52" value="" style="endArrow=none;html=1;rounded=0;" edge="1" parent="WIyWlLk6GJQsqaUBKTNV-1">
          <mxGeometry width="50" height="50" relative="1" as="geometry">
            <mxPoint x="360" y="1200" as="sourcePoint" />
            <mxPoint x="600" y="1200" as="targetPoint" />
          </mxGeometry>
        </mxCell>
      </root>
    </mxGraphModel>
  </diagram>
</mxfile>
